<svg width="20" height="20" viewBox="0 0 20 20" fill="none" xmlns="http://www.w3.org/2000/svg">
<path d="M4.54391 6.65367H0.24707V19.5572H4.54391V6.65367Z" fill="#2A263D"/>
<path d="M18.6461 7.83232C17.7435 6.84704 16.5497 6.35431 15.0654 6.35431C14.5185 6.35431 14.0214 6.42158 13.5743 6.55621C13.1273 6.69075 12.7498 6.87951 12.4415 7.1226C12.1335 7.36568 11.8881 7.59134 11.706 7.79958C11.5328 7.99737 11.3634 8.22778 11.1981 8.48842V6.65358H6.91406L6.9272 7.27866C6.936 7.69546 6.94033 8.9801 6.94033 11.1328C6.94033 13.2856 6.93167 16.0937 6.91424 19.5573H11.1981V12.3566C11.1981 11.914 11.2456 11.5625 11.3412 11.3019C11.5237 10.8589 11.799 10.4881 12.1681 10.1888C12.5372 9.88903 12.995 9.73931 13.542 9.73931C14.2883 9.73931 14.8376 9.99753 15.1892 10.514C15.5407 11.0305 15.7164 11.7445 15.7164 12.656V19.5569H20.0003V12.1615C20 10.2603 19.5489 8.81728 18.6461 7.83232Z" fill="#2A263D"/>
<path d="M2.42183 0.442703C1.70143 0.442703 1.11772 0.653359 0.670549 1.07426C0.223425 1.49525 0 2.02675 0 2.66925C0 3.30277 0.216995 3.83244 0.65103 4.25768C1.08493 4.68296 1.65793 4.89571 2.3697 4.89571H2.39574C3.12499 4.89571 3.71317 4.68314 4.16016 4.25768C4.60715 3.83244 4.82629 3.30295 4.81767 2.66925C4.809 2.0268 4.58749 1.49525 4.15359 1.07426C3.71974 0.653177 3.14227 0.442703 2.42183 0.442703Z" fill="#2A263D"/>
</svg>
