<svg width="255" height="295" viewBox="0 0 255 295" fill="none" xmlns="http://www.w3.org/2000/svg">
<path d="M173.5 0L192.022 57.0061H251.962L203.47 92.2378L221.992 149.244L173.5 114.012L125.008 149.244L143.53 92.2378L95.0378 57.0061H154.978L173.5 0Z" fill="#FFBC6B"/>
<path d="M39.5 134L48.8173 162.676H78.9688L54.5758 180.399L63.8931 209.074L39.5 191.352L15.1069 209.074L24.4242 180.399L0.0311546 162.676H30.1827L39.5 134Z" fill="#FFBC6B"/>
<path d="M208.5 207L219.389 240.513H254.626L226.119 261.225L237.008 294.738L208.5 274.026L179.992 294.738L190.881 261.225L162.374 240.513H197.611L208.5 207Z" fill="#FFBC6B"/>
</svg>
